<?xml version="1.0" encoding="UTF-8" standalone="no"?>
<svg
   sodipodi:docname="Logo-Sticker (1).svg"
   inkscape:version="1.0 (4035a4fb49, 2020-05-01)"
   id="svg8"
   version="1.1"
   viewBox="0 0 1164.1666 338.66665"
   height="1280"
   width="4400"
   inkscape:export-filename="..\Desktop\Website Files\images\logo.svg"
   inkscape:export-xdpi="96"
   inkscape:export-ydpi="96"
   xmlns:inkscape="http://www.inkscape.org/namespaces/inkscape"
   xmlns:sodipodi="http://sodipodi.sourceforge.net/DTD/sodipodi-0.dtd"
   xmlns:xlink="http://www.w3.org/1999/xlink"
   xmlns="http://www.w3.org/2000/svg"
   xmlns:svg="http://www.w3.org/2000/svg"
   xmlns:rdf="http://www.w3.org/1999/02/22-rdf-syntax-ns#"
   xmlns:cc="http://creativecommons.org/ns#"
   xmlns:dc="http://purl.org/dc/elements/1.1/">
  <defs
     id="defs2">
    <linearGradient
       id="linearGradient2818">
      <stop
         id="stop2814"
         offset="0"
         style="stop-color:#f01823;stop-opacity:1" />
      <stop
         style="stop-color:#fdef1f;stop-opacity:1"
         offset="0.48087031"
         id="stop2822" />
      <stop
         id="stop2824"
         offset="1"
         style="stop-color:#07df14;stop-opacity:1" />
    </linearGradient>
    <filter
       height="1.0008048"
       y="-0.00040240458"
       width="1.000484"
       x="-0.00024199531"
       id="filter2041-7-0"
       style="color-interpolation-filters:sRGB">
      <feGaussianBlur
         id="feGaussianBlur2043-0-4"
         stdDeviation="0.0012901419" />
    </filter>
    <linearGradient
       inkscape:collect="always"
       xlink:href="#linearGradient2818"
       id="linearGradient7204"
       gradientUnits="userSpaceOnUse"
       gradientTransform="matrix(3.0653035,0,0,12.653989,793.91361,122.57061)"
       x1="-55.25325"
       y1="-10.834407"
       x2="-55.25325"
       y2="18.514467" />
  </defs>
  <sodipodi:namedview
     inkscape:window-maximized="0"
     inkscape:window-y="0"
     inkscape:window-x="-6"
     inkscape:window-height="1011"
     inkscape:window-width="1159"
     units="px"
     showgrid="false"
     inkscape:document-rotation="0"
     inkscape:current-layer="layer1"
     inkscape:document-units="px"
     inkscape:cy="1280"
     inkscape:cx="2200"
     inkscape:zoom="0.13068182"
     inkscape:pageshadow="2"
     inkscape:pageopacity="0"
     borderopacity="1.0"
     bordercolor="#666666"
     pagecolor="#000000"
     id="base"
     inkscape:showpageshadow="2"
     inkscape:pagecheckerboard="0"
     inkscape:deskcolor="#d1d1d1" />
  <metadata
     id="metadata5">
    <rdf:RDF>
      <cc:Work
         rdf:about="">
        <dc:format>image/svg+xml</dc:format>
        <dc:type
           rdf:resource="http://purl.org/dc/dcmitype/StillImage" />
      </cc:Work>
    </rdf:RDF>
  </metadata>
  <g
     id="layer1"
     inkscape:groupmode="layer"
     inkscape:label="Layer 1">
    <g
       aria-label="CHRIS"
       transform="matrix(14.042703,0,0,15.107063,-66.372168,-104.87936)"
       id="text833-1-6-7"
       style="font-weight:bold;font-size:10.5833px;font-family:Marlett;-inkscape-font-specification:'Marlett Bold';white-space:pre;fill:#ffffff;filter:url(#filter2041-7-0)">
      <path
         d="m 12.158881,16.806073 q -0.857826,0 -1.586462,-0.253213 Q 9.8489515,16.299646 9.3270212,15.798386 8.8050909,15.297126 8.5157038,14.54782 8.2314843,13.798514 8.2314843,12.816665 q 0,-0.91467 0.2738842,-1.658808 0.2738842,-0.744138 0.7958146,-1.2764036 0.5012597,-0.5115951 1.2402299,-0.7906469 0.744139,-0.2790519 1.622635,-0.2790519 0.485757,0 0.873329,0.056844 0.39274,0.051676 0.723468,0.139526 0.346231,0.098185 0.625283,0.2222079 0.284219,0.1188554 0.496092,0.222208 v 1.8655135 h -0.227376 q -0.144693,-0.124023 -0.366901,-0.294555 -0.21704,-0.170532 -0.496092,-0.335896 -0.28422,-0.165364 -0.614948,-0.279052 -0.330728,-0.113687 -0.707965,-0.113687 -0.418578,0 -0.795814,0.134358 -0.377237,0.12919 -0.69763,0.43408 -0.30489,0.294555 -0.496092,0.780312 -0.186035,0.485757 -0.186035,1.178219 0,0.723468 0.201538,1.209225 0.206705,0.485757 0.516763,0.764808 0.315225,0.28422 0.702797,0.408243 0.387572,0.118855 0.764809,0.118855 0.361733,0 0.713132,-0.10852 0.356566,-0.10852 0.656289,-0.294555 0.253213,-0.149861 0.470254,-0.320392 0.21704,-0.170532 0.356566,-0.294555 h 0.206705 v 1.839675 q -0.289387,0.129191 -0.552936,0.242878 -0.263549,0.113688 -0.552936,0.19637 -0.377237,0.10852 -0.707965,0.165364 -0.330728,0.05684 -0.909502,0.05684 z"
         id="path1044" />
      <path
         d="m 23.238273,16.656212 h -1.984369 v -3.389963 h -2.930045 v 3.389963 H 16.339491 V 8.9616158 h 1.984368 v 2.8163562 h 2.930045 V 8.9616158 h 1.984369 z"
         id="path1046" />
      <path
         d="m 29.516939,11.318054 q 0,-0.289387 -0.118856,-0.496093 -0.118855,-0.206705 -0.408242,-0.32556 -0.201538,-0.08268 -0.470254,-0.09819 -0.268717,-0.02067 -0.625283,-0.02067 h -0.7183 v 2.072218 h 0.60978 q 0.475422,0 0.795814,-0.04651 0.320393,-0.04651 0.537434,-0.211872 0.206705,-0.160197 0.299722,-0.351399 0.09819,-0.19637 0.09819,-0.52193 z m 3.095408,5.338158 H 30.18873 l -2.098056,-2.821524 h -0.91467 v 2.821524 H 25.20197 V 8.9616158 h 3.327952 q 0.682127,0 1.173051,0.077514 0.490925,0.077514 0.919838,0.3358958 0.434081,0.2583813 0.687294,0.6717914 0.258382,0.408243 0.258382,1.028358 0,0.852659 -0.397908,1.390092 -0.392739,0.537433 -1.126542,0.893999 z"
         id="path1048" />
      <path
         d="m 37.640448,16.656212 h -4.506171 v -1.364253 h 1.260901 v -4.96609 H 33.134277 V 8.9616158 h 4.506171 v 1.3642532 h -1.260901 v 4.96609 h 1.260901 z"
         id="path1050" />
      <path
         d="m 45.417726,14.237763 q 0,1.136878 -0.966346,1.85001 -0.961179,0.707965 -2.614819,0.707965 -0.956011,0 -1.669144,-0.165364 -0.707965,-0.170532 -1.32808,-0.428913 v -1.844843 h 0.21704 q 0.614948,0.490925 1.374589,0.754474 0.764809,0.263549 1.467606,0.263549 0.180867,0 0.475422,-0.03101 0.294555,-0.03101 0.480589,-0.103353 0.227376,-0.09302 0.372069,-0.232543 0.149861,-0.139526 0.149861,-0.41341 0,-0.253214 -0.21704,-0.434081 -0.211873,-0.186034 -0.625283,-0.284219 -0.43408,-0.103353 -0.919837,-0.191202 -0.48059,-0.09302 -0.904335,-0.232544 -0.971514,-0.315225 -1.400427,-0.852658 -0.423745,-0.542601 -0.423745,-1.343583 0,-1.074866 0.961178,-1.7518254 0.966347,-0.6821267 2.480461,-0.6821267 0.759641,0 1.498612,0.1498612 0.744138,0.1446935 1.286739,0.3669015 v 1.7724964 h -0.211873 q -0.465086,-0.37207 -1.142045,-0.620116 -0.671792,-0.253213 -1.374589,-0.253213 -0.248046,0 -0.496092,0.03617 -0.242879,0.03101 -0.470254,0.124023 -0.201538,0.07751 -0.346231,0.237711 -0.144694,0.155029 -0.144694,0.356566 0,0.30489 0.232544,0.470254 0.232543,0.160197 0.878496,0.294555 0.423746,0.08785 0.811318,0.170532 0.392739,0.08268 0.842323,0.227375 0.883664,0.289387 1.302242,0.790647 0.423745,0.496092 0.423745,1.291907 z"
         id="path1052" />
    </g>
    <g
       aria-label="THE"
       transform="matrix(13.596634,0,0,14.627186,150.74578,66.793507)"
       id="text833-5-0-0-7"
       style="font-weight:bold;font-size:10.5833px;font-family:Marlett;-inkscape-font-specification:'Marlett Bold';white-space:pre;fill:#ffffff;filter:url(#filter2041-7-0)">
      <path
         d="m 14.701353,10.449892 h -2.402946 v 6.20632 h -1.984369 v -6.20632 H 7.9110914 V 8.9616158 h 6.7902616 z"
         id="path1065" />
      <path
         d="m 22.793856,16.656212 h -1.984368 v -3.389963 h -2.930045 v 3.389963 H 15.895075 V 8.9616158 h 1.984368 v 2.8163562 h 2.930045 V 8.9616158 h 1.984368 z"
         id="path1067" />
      <path
         d="M 30.323088,16.656212 H 24.757554 V 8.9616158 h 5.565534 v 1.4882762 h -3.5915 v 1.32808 h 3.333119 v 1.488277 h -3.333119 v 1.901687 h 3.5915 z"
         id="path1069" />
    </g>
    <g
       aria-label="DJ"
       transform="matrix(33.567637,0,0,36.111881,394.0798,-295.36669)"
       id="text833-5-7-3-4-8"
       style="font-weight:bold;font-size:10.5833px;font-family:Marlett;-inkscape-font-specification:'Marlett Bold';white-space:pre;fill:#ffffff;filter:url(#filter2041-7-0)">
      <path
         d="m 15.951919,12.816665 q 0,1.074867 -0.490925,1.927525 -0.490924,0.847491 -1.24023,1.302242 -0.563272,0.341063 -1.235063,0.475422 -0.671792,0.134358 -1.591629,0.134358 H 8.6810678 V 8.9616158 h 2.7905182 q 0.940508,0 1.622635,0.1601965 0.682127,0.1550288 1.147213,0.4444159 0.795815,0.4857568 1.250566,1.3125768 0.459919,0.821653 0.459919,1.93786 z m -2.051548,-0.0155 q 0,-0.759642 -0.279052,-1.297075 -0.273884,-0.542601 -0.873329,-0.847491 -0.30489,-0.149861 -0.625283,-0.201537 -0.315225,-0.05684 -0.956011,-0.05684 h -0.501259 v 4.816228 h 0.501259 q 0.707965,0 1.038693,-0.06201 0.330728,-0.06718 0.645954,-0.237711 0.5426,-0.310058 0.795814,-0.82682 0.253214,-0.521931 0.253214,-1.286739 z"
         id="path1078" />
      <path
         d="m 21.476112,14.397959 q 0,0.506428 -0.180867,0.950844 -0.180867,0.439248 -0.537433,0.744138 -0.377237,0.32556 -0.909503,0.506427 -0.532265,0.1757 -1.317745,0.1757 -0.532265,0 -1.002519,-0.04134 -0.470254,-0.03617 -0.82682,-0.10852 v -1.560623 h 0.186034 q 0.248046,0.09302 0.516763,0.175699 0.268716,0.07752 0.687294,0.07752 0.542601,0 0.831988,-0.144694 0.294555,-0.144693 0.418578,-0.403075 0.118855,-0.253213 0.134358,-0.552936 0.0155,-0.30489 0.0155,-0.775144 V 10.377546 H 17.729582 V 8.9616158 h 3.74653 z"
         id="path1080" />
    </g>
    <path
       id="path7202"
       clip-path="none"
       style="fill:url(#linearGradient7204);fill-opacity:1;fill-rule:nonzero;stroke:none;stroke-width:3.16384;stroke-miterlimit:4;stroke-dasharray:none"
       d="m 609.64421,11.45542 v 39.827895 h 36.2149 V 11.45542 Z m 0,69.417867 v 39.827893 h 36.2149 V 80.873287 Z m 0,69.418483 v 39.82728 h 36.2149 v -39.82728 z m 0,69.41787 v 39.82789 h 36.2149 v -39.82789 z m 0,69.41786 v 39.8279 h 36.2149 v -39.8279 z" />
  </g>
</svg>
